<?xml version="1.0" encoding="UTF-8"?>
<!DOCTYPE svg PUBLIC "-//W3C//DTD SVG 1.1//EN" "http://www.w3.org/Graphics/SVG/1.1/DTD/svg11.dtd">
<!-- Creator: CorelDRAW -->
<svg xmlns="http://www.w3.org/2000/svg" xml:space="preserve" width="300px" height="96px" version="1.1" style="shape-rendering:geometricPrecision; text-rendering:geometricPrecision; image-rendering:optimizeQuality; fill-rule:evenodd; clip-rule:evenodd"
viewBox="0 0 300 96"
 xmlns:xlink="http://www.w3.org/1999/xlink"
 xmlns:xodm="http://www.corel.com/coreldraw/odm/2003">
 <defs>
  <style type="text/css">
   <![CDATA[
    .fil0 {fill:white}
   ]]>
  </style>
 </defs>
 <g id="Camada_x0020_1">
  <metadata id="CorelCorpID_0Corel-Layer"/>
  <g id="_105553303107168">
   <g>
    <path class="fil0" d="M34.56 15.21c-1.99,2.49 -32.33,63.38 -32.12,64.45 0.43,2.21 3.78,1.99 5.34,-0.28 0.79,-1.07 6.48,-11.97 12.75,-24.22 6.2,-12.25 11.54,-22.01 11.75,-21.72 0.29,0.28 5.98,10.9 12.75,23.64 6.69,12.68 12.54,23.36 13.03,23.65 1.43,0.92 4.06,0.64 4.49,-0.5 0.36,-0.93 -12.89,-27.49 -23.07,-46.29 -4.14,-7.55 -4.28,-7.91 -3.21,-9.83 0.57,-1.14 1.14,-1.92 1.21,-1.78 0.14,0.07 7.05,13.18 15.46,29.06 8.33,15.88 15.52,29.05 15.95,29.41 1.42,1 4.27,0.21 4.48,-1.28 0.08,-0.79 -4.7,-10.54 -10.61,-21.72 -5.91,-11.19 -13.53,-25.5 -16.87,-31.91 -5.92,-11.25 -6.2,-11.54 -8.41,-11.54 -1.21,0 -2.56,0.43 -2.92,0.86l0 0z"/>
    <path class="fil0" d="M133.55 20.05c-5.76,2.35 -3.98,9.97 2.28,9.97 3.64,0 5.34,-1.64 5.34,-5.13 0,-3.84 -3.91,-6.33 -7.62,-4.84z"/>
    <path class="fil0" d="M91.96 38.85c-4.13,1.5 -6.62,3.63 -8.83,7.69 -1.85,3.35 -2.13,4.49 -2.13,9.83 0,3.35 0.42,7.27 0.99,8.76 1.28,3.7 4.77,7.55 8.26,9.12 5.2,2.42 13.82,1.42 17.59,-2 1.22,-1.07 1.29,-1.07 1.29,0.36 0,1.42 0.35,1.57 4.63,1.57l4.63 0 0 -17.45 0 -17.45 -4.63 0c-4.56,0 -4.63,0 -4.63,1.92l0 1.92 -1.93 -1.85c-3.41,-3.2 -10.11,-4.27 -15.24,-2.42l0 0zm13.32 8.62c3.78,2.49 5.06,10.18 2.49,15.17 -1.71,3.27 -4.77,5.13 -8.54,5.13 -2.35,0 -3.49,-0.5 -5.56,-2.42 -2.56,-2.36 -2.7,-2.64 -2.92,-7.7 -0.14,-4.27 0.07,-5.62 1.28,-7.54 2.64,-4.28 8.91,-5.49 13.25,-2.64l0 0z"/>
    <path class="fil0" d="M166.39 38.85c-1.29,0.57 -2.64,1.57 -3.07,2.35 -0.71,1.21 -0.71,1.14 -0.78,-0.35 0,-1.43 -0.29,-1.57 -4.63,-1.57l-4.63 0 0 17.45 0 17.45 4.63 0 4.63 0 0 -10.19c0,-11.54 0.64,-14.74 3.42,-16.88 1.92,-1.56 4.91,-1.63 8.04,-0.35 0.86,0.28 1.5,-0.43 2.71,-3.21 0.86,-2.06 1.5,-3.77 1.35,-3.84 -0.14,-0.15 -1.28,-0.57 -2.63,-1.07 -3.13,-1.07 -6.27,-0.93 -9.04,0.21l0 0z"/>
    <path class="fil0" d="M194.16 39.14c-1.99,0.71 -4.49,1.85 -5.56,2.49 -4.84,3.2 -8.19,11.47 -7.19,17.8 1.21,7.69 5.98,13.39 12.89,15.46 3.35,1 12.47,0.64 15.46,-0.57 1.85,-0.79 1.92,-1.07 1.92,-5.84 0,-2.85 -0.29,-4.99 -0.71,-4.99 -0.36,0 -0.71,0.29 -0.71,0.64 0,1.07 -5.99,3.64 -8.62,3.64 -5.98,0 -10.61,-4.78 -10.61,-11.04 0,-9.4 9.61,-14.03 17.8,-8.62l2.85 1.85 0 -4.98c0,-4.85 -0.07,-5.06 -1.92,-5.77 -3.71,-1.5 -11.61,-1.5 -15.6,-0.07l0 0z"/>
    <path class="fil0" d="M237.03 38.92c-1.56,0.57 -3.7,1.64 -4.84,2.5l-1.99 1.49 0 -1.85c0,-1.71 -0.15,-1.78 -4.28,-1.78l-4.27 0 0 17.45 0 17.45 4.2 0 4.13 0 0.43 -11.33c0.21,-6.41 0.71,-11.96 1.21,-12.82 1.28,-2.49 4.99,-4.34 8.62,-4.34 6.55,0 7.69,2.71 7.76,18.66l0 9.83 4.63 0 4.63 0 0 -12.54c0,-14.24 -0.71,-18.02 -3.7,-20.58 -3.78,-3.21 -11.04,-4.13 -16.53,-2.14l0 0z"/>
    <path class="fil0" d="M279.91 38.78c-6.13,1.78 -11.26,6.84 -12.75,12.82 -2.57,10.4 2.92,20.8 12.46,23.36 3.56,1 12.89,0.5 15.6,-0.78 1.85,-0.93 1.92,-1.21 1.92,-5.84 0,-4.92 -0.5,-5.77 -2.21,-3.64 -2.63,3.14 -8.47,3.85 -13.1,1.64 -3.78,-1.78 -5.63,-5.05 -5.63,-9.61 0,-8.05 6.41,-12.61 14.6,-10.33 1.43,0.43 3.14,1.35 3.85,2.14 0.71,0.78 1.56,1.42 1.92,1.42 0.29,0 0.57,-2.21 0.57,-4.84 0,-4.63 -0.07,-4.91 -1.92,-5.77 -2.92,-1.35 -11.47,-1.64 -15.31,-0.57l0 0z"/>
    <polygon class="fil0" points="131.2,56.73 131.2,74.18 135.83,74.18 140.46,74.18 140.46,56.73 140.46,39.28 135.83,39.28 131.2,39.28 "/>
   </g>
  </g>
 </g>
</svg>
